<svg width="34" height="42" viewBox="0 0 34 42" fill="none" xmlns="http://www.w3.org/2000/svg">
<path d="M16.9036 35.2263C16.6456 35.2263 16.4519 35.1618 16.2584 34.9684C16.1295 34.8394 13.0324 32.1941 9.93574 28.2584C8.0648 25.9358 6.64528 23.6132 5.54843 21.3551C4.19369 18.5163 3.54858 15.8065 3.54858 13.355C3.54858 5.99995 9.54853 0 16.9035 0C24.2586 0 30.2585 5.99995 30.2585 13.355C30.2585 15.9355 29.5489 18.6453 28.2587 21.4841C27.2264 23.7422 25.7426 26.0648 23.8714 28.3229C20.7747 32.2581 17.6776 34.839 17.5486 34.9679C17.3552 35.0969 17.1614 35.2262 16.9035 35.2262L16.9036 35.2263ZM16.9036 1.93509C10.6454 1.93509 5.54854 7.03196 5.54854 13.2901C5.54854 21.6772 14.4516 30.5164 16.9683 32.839C18.0006 31.8711 20.1943 29.8067 22.3876 27.0325C25.0974 23.613 28.3231 18.4513 28.3231 13.2901C28.2589 7.03196 23.162 1.93509 16.9042 1.93509H16.9036Z" fill="#FCDB5A"/>
<path d="M22.4521 12.6457C22.4521 15.7099 19.9678 18.1939 16.9035 18.1939C13.8391 18.1939 11.3549 15.71 11.3549 12.6457C11.3549 9.5814 13.8391 7.09705 16.9035 7.09705C19.9678 7.09705 22.4521 9.58132 22.4521 12.6457Z" fill="#FCDB5A"/>
<path d="M16.9036 41.9999C12.5163 41.9999 8.32238 41.2259 5.22586 39.7418C1.8064 38.1933 0 36 0 33.6125C0 30.8383 2.58049 28.3222 7.03226 26.7737C7.54843 26.5803 8.12911 26.8382 8.32255 27.4188C8.51599 27.935 8.25807 28.5157 7.67742 28.7091C4.12906 29.9349 1.9999 31.8058 1.9999 33.6771C1.9999 35.2256 3.48396 36.7738 6.06446 37.9995C8.96771 39.3543 12.7744 40.0642 16.9035 40.0642C21.0327 40.0642 24.9037 39.3546 27.7426 37.9995C30.3231 36.7738 31.8072 35.2253 31.8072 33.6771C31.8072 31.8707 29.8073 30.0642 26.3879 28.8384C25.8717 28.645 25.6138 28.0644 25.8072 27.5482C26.0007 27.032 26.5813 26.7741 27.0975 26.9675C31.3555 28.516 33.8074 30.9676 33.8074 33.6774C33.8074 36.0645 31.9365 38.2582 28.5816 39.8067C25.4846 41.1614 21.291 42 16.9039 42L16.9036 41.9999Z" fill="#FCDB5A"/>
</svg>
