<svg width="100" height="130" viewBox="0 0 100 130" fill="none" xmlns="http://www.w3.org/2000/svg">
<rect width="100" height="130" fill="#FCDB5A"/>
<path d="M65.8883 57.2695C68.84 49.5899 72.7325 43.8334 87 42.3023C87 42.3023 71.97 39.6987 63.149 49.6619C54.7197 59.1806 58.9775 78.6814 21.7182 81.1604C21.7182 81.1604 15.1321 93.7 13 97.3416H24.5781C26.4404 94.1922 25.7987 95.3341 27.3918 92.335C41.6099 90.9879 53.2552 84.5716 60.1754 71.5525C61.5811 75.4582 60.075 71.3335 69.6175 97.3416H80.5215C70.9293 71.2721 68.2129 63.7291 65.8883 57.2695Z" fill="white"/>
<path d="M61.2881 44.496C59.2522 38.8417 57.7047 34.5443 57.148 33H47.1586L22.9873 78.758C28.0105 78.3462 32.1708 77.6752 35.652 76.778L51.3854 47.1484L55.5744 58.7782C56.9336 55.5312 58.3783 51.2837 61.4043 48.1176C65.9239 43.0137 70.7976 41.943 71.5745 41.4347L61.2881 44.496Z" fill="white"/>
<path d="M69.885 96.9576C60.5296 71.4604 61.9238 75.2799 60.2415 70.608C53.7158 82.893 43.6166 90.4125 27.1501 91.9717C25.5476 94.9957 26.0185 94.158 24.3594 96.9576H13.6641C15.8848 93.0614 21.1652 83.0359 21.9579 81.5283C59.0791 78.981 55.2389 59.1719 63.4357 49.9156C68.3998 44.3081 76.1144 42.166 83.5905 42.395C71.5151 44.5425 68.1306 50.3745 65.4782 57.2652C66.7484 60.7673 68.5943 66.0328 79.9719 96.9576H69.885Z" fill="white"/>
<path d="M47.3902 33.3837H56.8785L61.0499 44.9676L66.6284 43.3073C59.7171 47.3588 57.3224 53.5179 55.5988 57.7158L51.4537 46.2039L35.3934 76.4483C32.0195 77.3058 28.1715 77.9186 23.6551 78.3169L47.3902 33.3837Z" fill="white"/>
</svg>
